# xmcd
#
# Track frame offsets: 
#        150
#        17763
#        38870
#        57585
#        73975
#        90045
#        104213
#        120105
#        158588
#
# Disc length: 2283 seconds
#
# Revision: 2
# Processed by: cddbd v1.5.2PL0 Copyright (c) Steve Scherf et al.
# Submitted via: ExactAudioCopy v0.99pb1
#
DISCID=6e08e909
DTITLE=Roy Buchanan - My Babe
DYEAR=1980
DGENRE=Blues-Rock
TTITLE0=You Gotta Let Me Know
TTITLE1=My Babe
TTITLE2=It Should've Been Me
TTITLE3=Secret Love
TTITLE4=Lack Of Funk
TTITLE5=Dr. Rock and Roll
TTITLE6=Dizzy Miss Lizzy
TTITLE7=Blues For Gary
TTITLE8=My Sonata
EXTD=
EXTT0=
EXTT1=
EXTT2=
EXTT3=
EXTT4=
EXTT5=
EXTT6=
EXTT7=
EXTT8=
PLAYORDER=
